<svg width="34" height="34" viewBox="0 0 34 34" fill="none" xmlns="http://www.w3.org/2000/svg">
  <rect width="34" height="34" rx="10" fill="#B22F33"/>
  <path d="M23.2965 9H16.243V13.7856C16.243 14.1024 15.9862 14.3592 15.6694 14.3592H10.8838V25.1806C10.8838 25.6331 11.2507 26 11.7031 26H23.2965C23.749 26 24.1159 25.6331 24.1159 25.1806V9.81935C24.1159 9.36686 23.749 9 23.2965 9ZM20.0671 22.6054H15.3972C15.0805 22.6054 14.8237 22.3486 14.8237 22.0319C14.8237 21.7151 15.0805 21.4583 15.3972 21.4583H20.0671C20.3839 21.4583 20.6407 21.7151 20.6407 22.0319C20.6407 22.3486 20.3839 22.6054 20.0671 22.6054ZM20.0671 19.9073H15.3972C15.0805 19.9073 14.8237 19.6505 14.8237 19.3337C14.8237 19.017 15.0805 18.7602 15.3972 18.7602H20.0671C20.3839 18.7602 20.6407 19.017 20.6407 19.3337C20.6407 19.6505 20.3839 19.9073 20.0671 19.9073ZM20.0671 17.2092H15.3972C15.0805 17.2092 14.8237 16.9524 14.8237 16.6357C14.8237 16.3189 15.0805 16.0621 15.3972 16.0621H20.0671C20.3839 16.0621 20.6407 16.3189 20.6407 16.6357C20.6407 16.9524 20.3839 17.2092 20.0671 17.2092Z" fill="white"/>
  <path d="M15.089 9C14.8717 9 14.6633 9.08629 14.5096 9.24003L11.1238 12.6257C10.9702 12.7794 10.8838 12.9878 10.8838 13.205V13.212H15.0959V9H15.089Z" fill="white"/>
  </svg>
  